<mxfile host="app.diagrams.net" modified="2021-11-24T12:40:13.586Z" agent="5.0 (Windows NT 10.0; Win64; x64) AppleWebKit/537.36 (KHTML, like Gecko) Chrome/96.0.4664.45 Safari/537.36 Edg/96.0.1054.29" etag="Gx5zNj-EkO_IUQid6j4f" version="15.8.3" type="github">
  <diagram name="Page-1" id="9361dd3d-8414-5efd-6122-117bd74ce7a7">
    <mxGraphModel dx="2585" dy="1365" grid="1" gridSize="10" guides="1" tooltips="1" connect="1" arrows="1" fold="1" page="0" pageScale="1.5" pageWidth="826" pageHeight="1169" background="none" math="0" shadow="0">
      <root>
        <mxCell id="0" />
        <mxCell id="1" parent="0" />
        <mxCell id="eQrMHqqPgeTJEbBXguBA-90" value=": Person" style="rounded=0;whiteSpace=wrap;html=1;" vertex="1" parent="1">
          <mxGeometry x="-20" y="-150" width="120" height="60" as="geometry" />
        </mxCell>
        <mxCell id="eQrMHqqPgeTJEbBXguBA-91" value=":Phone" style="rounded=0;whiteSpace=wrap;html=1;" vertex="1" parent="1">
          <mxGeometry x="220" y="-150" width="120" height="60" as="geometry" />
        </mxCell>
        <mxCell id="eQrMHqqPgeTJEbBXguBA-92" value="" style="endArrow=none;dashed=1;html=1;rounded=0;entryX=0.5;entryY=1;entryDx=0;entryDy=0;" edge="1" parent="1" target="eQrMHqqPgeTJEbBXguBA-90">
          <mxGeometry width="50" height="50" relative="1" as="geometry">
            <mxPoint x="40" y="464.2857142857143" as="sourcePoint" />
            <mxPoint x="120" y="-50" as="targetPoint" />
          </mxGeometry>
        </mxCell>
        <mxCell id="eQrMHqqPgeTJEbBXguBA-93" value="" style="endArrow=none;dashed=1;html=1;rounded=0;entryX=0.5;entryY=1;entryDx=0;entryDy=0;startArrow=none;" edge="1" parent="1">
          <mxGeometry width="50" height="50" relative="1" as="geometry">
            <mxPoint x="279" y="470" as="sourcePoint" />
            <mxPoint x="279.40999999999997" y="-90" as="targetPoint" />
          </mxGeometry>
        </mxCell>
        <mxCell id="eQrMHqqPgeTJEbBXguBA-94" value="" style="rounded=0;whiteSpace=wrap;html=1;" vertex="1" parent="1">
          <mxGeometry x="30" y="-60" width="20" height="500" as="geometry" />
        </mxCell>
        <mxCell id="eQrMHqqPgeTJEbBXguBA-95" value="" style="rounded=0;whiteSpace=wrap;html=1;" vertex="1" parent="1">
          <mxGeometry x="270" y="-90" width="20" height="490" as="geometry" />
        </mxCell>
        <mxCell id="eQrMHqqPgeTJEbBXguBA-98" value="1. pick up" style="text;html=1;align=center;verticalAlign=middle;resizable=0;points=[];autosize=1;strokeColor=none;fillColor=none;" vertex="1" parent="1">
          <mxGeometry x="120" y="-60" width="70" height="20" as="geometry" />
        </mxCell>
        <mxCell id="eQrMHqqPgeTJEbBXguBA-108" value="1.1 dail tone" style="html=1;verticalAlign=bottom;endArrow=open;dashed=1;endSize=8;rounded=0;shadow=1;exitX=-0.071;exitY=0.205;exitDx=0;exitDy=0;exitPerimeter=0;" edge="1" parent="1" source="eQrMHqqPgeTJEbBXguBA-95">
          <mxGeometry relative="1" as="geometry">
            <mxPoint x="130" y="10" as="sourcePoint" />
            <mxPoint x="50" y="10" as="targetPoint" />
          </mxGeometry>
        </mxCell>
        <mxCell id="eQrMHqqPgeTJEbBXguBA-114" value="2. dail" style="text;html=1;align=center;verticalAlign=middle;resizable=0;points=[];autosize=1;strokeColor=none;fillColor=none;" vertex="1" parent="1">
          <mxGeometry x="130" y="30" width="50" height="20" as="geometry" />
        </mxCell>
        <mxCell id="eQrMHqqPgeTJEbBXguBA-118" value="2.1. ring" style="html=1;verticalAlign=bottom;endArrow=open;dashed=1;endSize=8;rounded=0;shadow=1;exitX=-0.052;exitY=0.393;exitDx=0;exitDy=0;exitPerimeter=0;" edge="1" parent="1" source="eQrMHqqPgeTJEbBXguBA-95">
          <mxGeometry relative="1" as="geometry">
            <mxPoint x="130" y="100" as="sourcePoint" />
            <mxPoint x="50" y="100" as="targetPoint" />
          </mxGeometry>
        </mxCell>
        <mxCell id="eQrMHqqPgeTJEbBXguBA-121" value="" style="endArrow=block;endFill=1;html=1;edgeStyle=orthogonalEdgeStyle;align=left;verticalAlign=top;rounded=0;shadow=1;entryX=0;entryY=0.122;entryDx=0;entryDy=0;entryPerimeter=0;" edge="1" parent="1">
          <mxGeometry x="-1" relative="1" as="geometry">
            <mxPoint x="50" y="220.22" as="sourcePoint" />
            <mxPoint x="270" y="220.00000000000009" as="targetPoint" />
            <Array as="points">
              <mxPoint x="220" y="220.22" />
              <mxPoint x="220" y="220.22" />
            </Array>
          </mxGeometry>
        </mxCell>
        <mxCell id="eQrMHqqPgeTJEbBXguBA-122" value="" style="endArrow=block;endFill=1;html=1;edgeStyle=orthogonalEdgeStyle;align=left;verticalAlign=top;rounded=0;shadow=1;entryX=1;entryY=0.75;entryDx=0;entryDy=0;exitX=-0.052;exitY=0.584;exitDx=0;exitDy=0;exitPerimeter=0;" edge="1" parent="1">
          <mxGeometry x="-1" relative="1" as="geometry">
            <mxPoint x="269.9599999999998" y="271.15999999999997" as="sourcePoint" />
            <mxPoint x="51" y="270.0000000000001" as="targetPoint" />
            <Array as="points">
              <mxPoint x="270" y="270" />
            </Array>
          </mxGeometry>
        </mxCell>
        <mxCell id="eQrMHqqPgeTJEbBXguBA-123" value="" style="endArrow=open;endFill=1;endSize=12;html=1;rounded=0;shadow=1;entryX=-0.09;entryY=0.124;entryDx=0;entryDy=0;entryPerimeter=0;" edge="1" parent="1" target="eQrMHqqPgeTJEbBXguBA-95">
          <mxGeometry width="160" relative="1" as="geometry">
            <mxPoint x="50" y="-30" as="sourcePoint" />
            <mxPoint x="210" y="-30" as="targetPoint" />
          </mxGeometry>
        </mxCell>
        <mxCell id="eQrMHqqPgeTJEbBXguBA-124" value="" style="endArrow=open;endFill=1;endSize=12;html=1;rounded=0;shadow=1;exitX=1.09;exitY=0.238;exitDx=0;exitDy=0;exitPerimeter=0;" edge="1" parent="1" source="eQrMHqqPgeTJEbBXguBA-94">
          <mxGeometry width="160" relative="1" as="geometry">
            <mxPoint x="270" y="60" as="sourcePoint" />
            <mxPoint x="270" y="61" as="targetPoint" />
          </mxGeometry>
        </mxCell>
        <mxCell id="eQrMHqqPgeTJEbBXguBA-126" value="4. message" style="text;html=1;align=center;verticalAlign=middle;resizable=0;points=[];autosize=1;strokeColor=none;fillColor=none;" vertex="1" parent="1">
          <mxGeometry x="120" y="200" width="80" height="20" as="geometry" />
        </mxCell>
        <mxCell id="eQrMHqqPgeTJEbBXguBA-127" value="5. message" style="text;html=1;align=center;verticalAlign=middle;resizable=0;points=[];autosize=1;strokeColor=none;fillColor=none;" vertex="1" parent="1">
          <mxGeometry x="120" y="240" width="80" height="20" as="geometry" />
        </mxCell>
        <mxCell id="eQrMHqqPgeTJEbBXguBA-131" value="" style="group" vertex="1" connectable="0" parent="1">
          <mxGeometry x="15" y="190" width="280" height="100" as="geometry" />
        </mxCell>
        <mxCell id="eQrMHqqPgeTJEbBXguBA-128" value="par" style="shape=umlFrame;whiteSpace=wrap;html=1;" vertex="1" parent="eQrMHqqPgeTJEbBXguBA-131">
          <mxGeometry width="280" height="100" as="geometry" />
        </mxCell>
        <mxCell id="eQrMHqqPgeTJEbBXguBA-130" value="" style="endArrow=none;dashed=1;html=1;dashPattern=1 3;strokeWidth=2;rounded=0;shadow=1;exitX=0;exitY=0.5;exitDx=0;exitDy=0;exitPerimeter=0;" edge="1" parent="eQrMHqqPgeTJEbBXguBA-131" source="eQrMHqqPgeTJEbBXguBA-128" target="eQrMHqqPgeTJEbBXguBA-128">
          <mxGeometry width="50" height="50" relative="1" as="geometry">
            <mxPoint x="-9.333333333333334" y="78.57142857142858" as="sourcePoint" />
            <mxPoint x="37.333333333333336" y="42.85714285714286" as="targetPoint" />
            <Array as="points">
              <mxPoint x="205.33333333333334" y="50" />
              <mxPoint x="233.33333333333334" y="50" />
            </Array>
          </mxGeometry>
        </mxCell>
        <mxCell id="eQrMHqqPgeTJEbBXguBA-132" value="opt" style="shape=umlFrame;whiteSpace=wrap;html=1;" vertex="1" parent="1">
          <mxGeometry x="-15" y="115" width="340" height="195" as="geometry" />
        </mxCell>
        <mxCell id="eQrMHqqPgeTJEbBXguBA-133" value="[connected]" style="text;html=1;align=center;verticalAlign=middle;resizable=0;points=[];autosize=1;strokeColor=none;fillColor=none;" vertex="1" parent="1">
          <mxGeometry x="45" y="120" width="80" height="20" as="geometry" />
        </mxCell>
        <mxCell id="eQrMHqqPgeTJEbBXguBA-136" value="hang up" style="text;html=1;align=center;verticalAlign=middle;resizable=0;points=[];autosize=1;strokeColor=none;fillColor=none;" vertex="1" parent="1">
          <mxGeometry x="125" y="360" width="60" height="20" as="geometry" />
        </mxCell>
        <mxCell id="eQrMHqqPgeTJEbBXguBA-137" value="" style="endArrow=block;endFill=1;html=1;edgeStyle=orthogonalEdgeStyle;align=left;verticalAlign=top;rounded=0;shadow=1;entryX=1;entryY=0.75;entryDx=0;entryDy=0;exitX=-0.052;exitY=0.584;exitDx=0;exitDy=0;exitPerimeter=0;" edge="1" parent="1">
          <mxGeometry x="-1" relative="1" as="geometry">
            <mxPoint x="270.00000000000006" y="341.15999999999985" as="sourcePoint" />
            <mxPoint x="51.04" y="340" as="targetPoint" />
            <Array as="points">
              <mxPoint x="270.04" y="340" />
            </Array>
          </mxGeometry>
        </mxCell>
        <mxCell id="eQrMHqqPgeTJEbBXguBA-138" value="disconnected" style="text;html=1;align=center;verticalAlign=middle;resizable=0;points=[];autosize=1;strokeColor=none;fillColor=none;" vertex="1" parent="1">
          <mxGeometry x="105" y="320" width="90" height="20" as="geometry" />
        </mxCell>
        <mxCell id="eQrMHqqPgeTJEbBXguBA-139" value="" style="endArrow=block;endFill=1;html=1;edgeStyle=orthogonalEdgeStyle;align=left;verticalAlign=top;rounded=0;shadow=1;entryX=1;entryY=0.75;entryDx=0;entryDy=0;exitX=-0.052;exitY=0.584;exitDx=0;exitDy=0;exitPerimeter=0;" edge="1" parent="1">
          <mxGeometry x="-1" relative="1" as="geometry">
            <mxPoint x="268.96000000000004" y="169.97999999999985" as="sourcePoint" />
            <mxPoint x="50" y="168.82" as="targetPoint" />
            <Array as="points">
              <mxPoint x="269" y="168.82" />
            </Array>
          </mxGeometry>
        </mxCell>
        <mxCell id="eQrMHqqPgeTJEbBXguBA-140" value="3.connected" style="text;html=1;align=center;verticalAlign=middle;resizable=0;points=[];autosize=1;strokeColor=none;fillColor=none;" vertex="1" parent="1">
          <mxGeometry x="115" y="145" width="80" height="20" as="geometry" />
        </mxCell>
        <mxCell id="eQrMHqqPgeTJEbBXguBA-146" value="" style="endArrow=block;endFill=1;html=1;edgeStyle=orthogonalEdgeStyle;align=left;verticalAlign=top;rounded=0;shadow=1;entryX=0;entryY=0.122;entryDx=0;entryDy=0;entryPerimeter=0;" edge="1" parent="1">
          <mxGeometry x="-1" relative="1" as="geometry">
            <mxPoint x="50" y="380.21999999999997" as="sourcePoint" />
            <mxPoint x="270" y="379.99999999999994" as="targetPoint" />
            <Array as="points">
              <mxPoint x="220" y="380.21999999999997" />
              <mxPoint x="220" y="380.21999999999997" />
            </Array>
          </mxGeometry>
        </mxCell>
        <mxCell id="eQrMHqqPgeTJEbBXguBA-149" value="" style="shape=umlDestroy;whiteSpace=wrap;html=1;strokeWidth=3;" vertex="1" parent="1">
          <mxGeometry x="265" y="420" width="30" height="30" as="geometry" />
        </mxCell>
      </root>
    </mxGraphModel>
  </diagram>
</mxfile>
